<?xml version="1.0" encoding="UTF-8"?>
<svg version="1.1" xmlns="http://www.w3.org/2000/svg" width="500" height="500">
<path d="M0 0 C165 0 330 0 500 0 C500 165 500 330 500 500 C335 500 170 500 0 500 C0 335 0 170 0 0 Z " fill="#FEFEFE" transform="translate(0,0)"/>
<path d="M0 0 C0.80939484 -0.00311998 1.61878968 -0.00623996 2.45271164 -0.00945449 C5.16907411 -0.01744087 7.88521356 -0.01110792 10.60157776 -0.00482178 C12.54836661 -0.00753172 14.49515443 -0.01109266 16.44194031 -0.01544189 C21.73842455 -0.02457808 27.03483106 -0.02101385 32.33131671 -0.01468372 C37.88820781 -0.00961789 43.44509228 -0.01431794 49.00198364 -0.01745605 C58.35273936 -0.02109914 67.70346355 -0.016293 77.05421448 -0.0067749 C87.81821163 0.00405625 98.5821327 0.00062455 109.34612793 -0.01042771 C118.61101025 -0.01955572 127.87586986 -0.02075749 137.14075524 -0.01555037 C142.66288466 -0.01245381 148.18497858 -0.01195581 153.70710564 -0.01862335 C158.91836526 -0.02447475 164.12952891 -0.02026011 169.34077835 -0.00883484 C171.23638946 -0.006227 173.13200888 -0.00688538 175.0276165 -0.01136017 C184.84111506 -0.03235784 194.55141706 0.24485146 204.32778931 1.1451416 C205.18236235 1.22261305 206.0369354 1.30008449 206.91740459 1.37990355 C212.12393155 1.90817063 216.97905879 2.88367998 222.02955627 4.25396729 C223.26834534 4.53756104 224.5071344 4.82115479 225.78346252 5.11334229 C249.92607984 10.75900049 270.64023783 22.10413377 287.15455627 40.87896729 C290.46457562 44.60686283 293.91535059 48.07199046 297.52955627 51.50396729 C315.63426884 69.45653941 321.38504965 92.20416892 321.55519104 116.98809814 C321.33033591 133.0875179 317.24387769 149.48059746 307.02955627 162.25396729 C306.35537659 163.13052979 305.6811969 164.00709229 304.98658752 164.91021729 C303.04019487 167.39341993 301.0433702 169.82541886 299.02955627 172.25396729 C298.57709534 172.84177979 298.1246344 173.42959229 297.65846252 174.03521729 C294.58066819 177.99093984 291.16120761 180.49953306 287.02955627 183.25396729 C288.61895053 187.1861103 291.19298129 189.58417075 294.21705627 192.50396729 C298.137767 196.33272649 301.85983716 200.24898622 305.41236877 204.42193604 C307.08256228 206.31401515 308.84139218 208.06166684 310.65455627 209.81646729 C325.75843813 224.8867102 329.35047401 247.05488725 329.46705627 267.62896729 C329.18041835 291.76388032 321.09603881 314.29050343 303.74440002 331.52349854 C295.51133657 338.78946335 285.8488833 343.4949328 276.02955627 348.25396729 C275.38550842 348.570271 274.74146057 348.88657471 274.07789612 349.21246338 C261.51088152 355.30191866 248.23418276 358.01630141 234.47096252 359.85943604 C232.030316 360.12908833 232.030316 360.12908833 230.02955627 361.25396729 C208.62845002 363.06523021 186.94302702 362.43534482 165.48598051 362.45415592 C162.2795123 362.45711395 159.07304745 362.46122277 155.86658096 362.4656601 C145.80996547 362.47925769 135.75335787 362.48896997 125.69673383 362.49286199 C114.12537975 362.49736753 102.55414232 362.51506231 90.98282373 362.54386258 C81.99721581 362.56544779 73.01164088 362.57556406 64.02600729 362.5769031 C58.67342892 362.57795051 53.3209614 362.58384867 47.96841049 362.60172272 C42.95309054 362.61815541 37.93796563 362.62038245 32.9226284 362.61158371 C31.08316336 362.6108116 29.24368796 362.61517887 27.40424919 362.62504196 C24.89560295 362.63770768 22.38765403 362.6319151 19.87901306 362.62145996 C19.1505311 362.62951637 18.42204915 362.63757277 17.67149198 362.64587331 C8.55808219 362.55690592 3.9034627 356.47153845 -2.15501404 350.3850708 C-3.58970215 348.94722151 -5.03720803 347.52322028 -6.48606873 346.09967041 C-7.4013031 345.18508057 -8.31653748 344.27049072 -9.25950623 343.32818604 C-10.0917572 342.49891602 -10.92400818 341.669646 -11.78147888 340.81524658 C-16.09981219 335.76242094 -17.34617546 331.56855081 -17.35862732 324.96685791 C-17.36388428 324.26360886 -17.36914124 323.5603598 -17.3745575 322.83580017 C-17.38768734 320.527042 -17.37904488 318.21898163 -17.36888123 315.91021729 C-17.37090399 314.29648711 -17.37381712 312.68275782 -17.37757874 311.06903076 C-17.38199257 307.69325016 -17.37560152 304.31770833 -17.36155701 300.94195557 C-17.34446552 296.62442264 -17.35431178 292.30744925 -17.3722744 287.98993683 C-17.38313778 284.65954404 -17.37965422 281.32928295 -17.37189102 277.99888611 C-17.36989607 276.40734287 -17.37232344 274.81578749 -17.37932968 273.22425842 C-17.38698654 270.99621101 -17.37528202 268.76905782 -17.35862732 266.54107666 C-17.35624054 265.2756604 -17.35385376 264.01024414 -17.35139465 262.70648193 C-16.81875748 257.87925223 -15.07561879 254.608698 -12.03294373 250.87896729 C-8.53744012 249.02421027 -6.68774187 249.0840616 -2.77903748 249.15240479 C-1.69292175 249.16706787 -0.60680603 249.18173096 0.51222229 249.19683838 C1.3429425 249.21569092 2.17366272 249.23454346 3.02955627 249.25396729 C3.27357424 230.75508725 3.42462179 212.25762169 3.4673996 193.75715637 C3.48939369 185.16527034 3.54089374 176.57551974 3.66383362 167.98443604 C3.77101427 160.48923017 3.8208202 152.99611819 3.80400515 145.50012875 C3.79705737 141.53618699 3.81728116 137.5769028 3.90643311 133.61386108 C4.87963595 114.19373853 4.87963595 114.19373853 -3.67247772 97.58732605 C-6.4056412 95.09654001 -9.28356368 92.88570823 -12.25322723 90.68715668 C-15.92837812 87.61987466 -16.84853003 84.34462512 -17.36485291 79.7255249 C-17.37327209 78.42457886 -17.38169128 77.12363281 -17.3903656 75.78326416 C-17.39883514 75.06050797 -17.40730469 74.33775177 -17.41603088 73.59309387 C-17.43930604 71.21945286 -17.44042553 68.84646346 -17.43919373 66.47271729 C-17.44629991 64.81414534 -17.45399958 63.15557585 -17.46226501 61.49700928 C-17.47568715 58.02709104 -17.47728834 54.55740026 -17.47142029 51.08746338 C-17.46551933 46.64862109 -17.49614169 42.21087073 -17.53653717 37.77223969 C-17.56242666 34.34918372 -17.56529063 30.9263905 -17.56164551 27.50325012 C-17.5633349 25.8670222 -17.57296006 24.23078191 -17.59078979 22.59465027 C-17.61301165 20.30391911 -17.60326531 18.01539619 -17.5856781 15.72467041 C-17.58773254 14.42372437 -17.58978699 13.12277832 -17.59190369 11.78240967 C-16.76775331 7.10315872 -15.34519553 5.56217511 -11.97044373 2.25396729 C-8.25768694 -0.30127494 -4.33980718 -0.0256073 0 0 Z " fill="#FDFDFD" transform="translate(93.97044372558594,68.74603271484375)"/>
<path d="M0 0 C0.80939484 -0.00311998 1.61878968 -0.00623996 2.45271164 -0.00945449 C5.16907411 -0.01744087 7.88521356 -0.01110792 10.60157776 -0.00482178 C12.54836661 -0.00753172 14.49515443 -0.01109266 16.44194031 -0.01544189 C21.73842455 -0.02457808 27.03483106 -0.02101385 32.33131671 -0.01468372 C37.88820781 -0.00961789 43.44509228 -0.01431794 49.00198364 -0.01745605 C58.35273936 -0.02109914 67.70346355 -0.016293 77.05421448 -0.0067749 C87.81821163 0.00405625 98.5821327 0.00062455 109.34612793 -0.01042771 C118.61101025 -0.01955572 127.87586986 -0.02075749 137.14075524 -0.01555037 C142.66288466 -0.01245381 148.18497858 -0.01195581 153.70710564 -0.01862335 C158.91836526 -0.02447475 164.12952891 -0.02026011 169.34077835 -0.00883484 C171.23638946 -0.006227 173.13200888 -0.00688538 175.0276165 -0.01136017 C184.84111506 -0.03235784 194.55141706 0.24485146 204.32778931 1.1451416 C205.18236235 1.22261305 206.0369354 1.30008449 206.91740459 1.37990355 C212.12393155 1.90817063 216.97905879 2.88367998 222.02955627 4.25396729 C223.26834534 4.53756104 224.5071344 4.82115479 225.78346252 5.11334229 C249.92607984 10.75900049 270.64023783 22.10413377 287.15455627 40.87896729 C290.46457562 44.60686283 293.91535059 48.07199046 297.52955627 51.50396729 C315.63426884 69.45653941 321.38504965 92.20416892 321.55519104 116.98809814 C321.33033591 133.0875179 317.24387769 149.48059746 307.02955627 162.25396729 C306.35537659 163.13052979 305.6811969 164.00709229 304.98658752 164.91021729 C303.04019487 167.39341993 301.0433702 169.82541886 299.02955627 172.25396729 C298.57709534 172.84177979 298.1246344 173.42959229 297.65846252 174.03521729 C294.58066819 177.99093984 291.16120761 180.49953306 287.02955627 183.25396729 C288.61895053 187.1861103 291.19298129 189.58417075 294.21705627 192.50396729 C298.137767 196.33272649 301.85983716 200.24898622 305.41236877 204.42193604 C307.08256228 206.31401515 308.84139218 208.06166684 310.65455627 209.81646729 C325.75843813 224.8867102 329.35047401 247.05488725 329.46705627 267.62896729 C329.18041835 291.76388032 321.09603881 314.29050343 303.74440002 331.52349854 C295.51133657 338.78946335 285.8488833 343.4949328 276.02955627 348.25396729 C275.38550842 348.570271 274.74146057 348.88657471 274.07789612 349.21246338 C261.51088152 355.30191866 248.23418276 358.01630141 234.47096252 359.85943604 C232.030316 360.12908833 232.030316 360.12908833 230.02955627 361.25396729 C208.62845002 363.06523021 186.94302702 362.43534482 165.48598051 362.45415592 C162.2795123 362.45711395 159.07304745 362.46122277 155.86658096 362.4656601 C145.80996547 362.47925769 135.75335787 362.48896997 125.69673383 362.49286199 C114.12537975 362.49736753 102.55414232 362.51506231 90.98282373 362.54386258 C81.99721581 362.56544779 73.01164088 362.57556406 64.02600729 362.5769031 C58.67342892 362.57795051 53.3209614 362.58384867 47.96841049 362.60172272 C42.95309054 362.61815541 37.93796563 362.62038245 32.9226284 362.61158371 C31.08316336 362.6108116 29.24368796 362.61517887 27.40424919 362.62504196 C24.89560295 362.63770768 22.38765403 362.6319151 19.87901306 362.62145996 C19.1505311 362.62951637 18.42204915 362.63757277 17.67149198 362.64587331 C8.55808219 362.55690592 3.9034627 356.47153845 -2.15501404 350.3850708 C-3.58970215 348.94722151 -5.03720803 347.52322028 -6.48606873 346.09967041 C-7.4013031 345.18508057 -8.31653748 344.27049072 -9.25950623 343.32818604 C-10.0917572 342.49891602 -10.92400818 341.669646 -11.78147888 340.81524658 C-16.09981219 335.76242094 -17.34617546 331.56855081 -17.35862732 324.96685791 C-17.36388428 324.26360886 -17.36914124 323.5603598 -17.3745575 322.83580017 C-17.38768734 320.527042 -17.37904488 318.21898163 -17.36888123 315.91021729 C-17.37090399 314.29648711 -17.37381712 312.68275782 -17.37757874 311.06903076 C-17.38199257 307.69325016 -17.37560152 304.31770833 -17.36155701 300.94195557 C-17.34446552 296.62442264 -17.35431178 292.30744925 -17.3722744 287.98993683 C-17.38313778 284.65954404 -17.37965422 281.32928295 -17.37189102 277.99888611 C-17.36989607 276.40734287 -17.37232344 274.81578749 -17.37932968 273.22425842 C-17.38698654 270.99621101 -17.37528202 268.76905782 -17.35862732 266.54107666 C-17.35624054 265.2756604 -17.35385376 264.01024414 -17.35139465 262.70648193 C-16.81875748 257.87925223 -15.07561879 254.608698 -12.03294373 250.87896729 C-8.53744012 249.02421027 -6.68774187 249.0840616 -2.77903748 249.15240479 C-1.69292175 249.16706787 -0.60680603 249.18173096 0.51222229 249.19683838 C1.3429425 249.21569092 2.17366272 249.23454346 3.02955627 249.25396729 C3.27357424 230.75508725 3.42462179 212.25762169 3.4673996 193.75715637 C3.48939369 185.16527034 3.54089374 176.57551974 3.66383362 167.98443604 C3.77101427 160.48923017 3.8208202 152.99611819 3.80400515 145.50012875 C3.79705737 141.53618699 3.81728116 137.5769028 3.90643311 133.61386108 C4.87963595 114.19373853 4.87963595 114.19373853 -3.67247772 97.58732605 C-6.4056412 95.09654001 -9.28356368 92.88570823 -12.25322723 90.68715668 C-15.92837812 87.61987466 -16.84853003 84.34462512 -17.36485291 79.7255249 C-17.37327209 78.42457886 -17.38169128 77.12363281 -17.3903656 75.78326416 C-17.39883514 75.06050797 -17.40730469 74.33775177 -17.41603088 73.59309387 C-17.43930604 71.21945286 -17.44042553 68.84646346 -17.43919373 66.47271729 C-17.44629991 64.81414534 -17.45399958 63.15557585 -17.46226501 61.49700928 C-17.47568715 58.02709104 -17.47728834 54.55740026 -17.47142029 51.08746338 C-17.46551933 46.64862109 -17.49614169 42.21087073 -17.53653717 37.77223969 C-17.56242666 34.34918372 -17.56529063 30.9263905 -17.56164551 27.50325012 C-17.5633349 25.8670222 -17.57296006 24.23078191 -17.59078979 22.59465027 C-17.61301165 20.30391911 -17.60326531 18.01539619 -17.5856781 15.72467041 C-17.58773254 14.42372437 -17.58978699 13.12277832 -17.59190369 11.78240967 C-16.76775331 7.10315872 -15.34519553 5.56217511 -11.97044373 2.25396729 C-8.25768694 -0.30127494 -4.33980718 -0.0256073 0 0 Z M-4.97044373 13.25396729 C-4.97044373 35.36396729 -4.97044373 57.47396729 -4.97044373 80.25396729 C1.95955627 80.25396729 8.88955627 80.25396729 16.02955627 80.25396729 C16.02955627 140.31396729 16.02955627 200.37396729 16.02955627 262.25396729 C9.09955627 262.25396729 2.16955627 262.25396729 -4.97044373 262.25396729 C-4.97044373 284.36396729 -4.97044373 306.47396729 -4.97044373 329.25396729 C19.94406035 329.29925752 44.85853066 329.33603952 69.77306557 329.35759163 C81.34344083 329.36786827 92.91378855 329.38185884 104.48414612 329.40484619 C114.57850298 329.42489141 124.67283987 329.43770991 134.76721609 329.44214427 C140.10333123 329.44473296 145.43938929 329.45074056 150.77548599 329.4654274 C155.81678061 329.47918801 160.85799563 329.48315338 165.89930725 329.48018265 C167.73161123 329.48072468 169.56391839 329.48459049 171.3962059 329.49237823 C188.8745872 329.56290665 206.49479485 328.65547518 223.65455627 325.12896729 C224.6888678 324.91723877 225.72317932 324.70551025 226.78883362 324.48736572 C247.34035743 319.99754135 270.92222075 310.40858558 283.52174377 292.67974854 C296.38420247 271.98651836 299.92613004 247.00986487 294.90211487 223.06427002 C290.89914074 207.49431128 282.51639011 196.60558164 268.90065002 188.42193604 C255.23400607 180.57324872 238.02195823 172.72926795 222.02955627 174.25396729 C222.02955627 172.60396729 222.02955627 170.95396729 222.02955627 169.25396729 C222.83393127 169.15922119 222.83393127 169.15922119 223.65455627 169.06256104 C232.42454436 167.6922504 240.0988098 164.07247484 248.02955627 160.25396729 C249.07498596 159.76283447 250.12041565 159.27170166 251.19752502 158.76568604 C267.92167163 150.03121271 280.2210081 134.26742323 286.02955627 116.57427979 C286.35955627 115.47857666 286.68955627 114.38287354 287.02955627 113.25396729 C287.27705627 112.44701416 287.52455627 111.64006104 287.77955627 110.80865479 C290.71388809 99.11208211 290.0862013 84.83795725 287.02955627 73.25396729 C286.62736877 71.670354 286.62736877 71.670354 286.21705627 70.05474854 C282.81528764 57.85090357 276.85742352 49.23377717 268.02955627 40.25396729 C267.41467346 39.62619385 266.79979065 38.99842041 266.16627502 38.35162354 C251.4323765 24.43802772 230.597587 18.19805686 211.02955627 15.25396729 C209.85685684 15.07395739 208.68415741 14.89394749 207.47592163 14.70848274 C196.56819672 13.1807151 185.85513088 12.98217649 174.85377502 13.0269165 C172.88099676 13.02748204 170.90821808 13.02716129 168.93544006 13.02603149 C163.63073381 13.02546253 158.32611979 13.03714221 153.02143478 13.05117941 C147.45879852 13.06376356 141.89615966 13.06486328 136.33351135 13.06723022 C125.82256493 13.07342256 115.31166059 13.0898027 104.80073261 13.1099292 C92.82477913 13.13235848 80.84882353 13.14329924 68.87285423 13.15332007 C44.25839295 13.17417114 19.64398927 13.21081901 -4.97044373 13.25396729 Z " fill="#020202" transform="translate(93.97044372558594,68.74603271484375)"/>
<path d="M0 0 C35.76923077 0 35.76923077 0 43.4375 7.25 C49.4660513 14.18884538 48.34129884 24.60109405 48.31567383 33.20825195 C48.31251203 35.42904714 48.33603508 37.6485092 48.36132812 39.86914062 C48.43793505 56.83828915 48.43793505 56.83828915 42.625 63.875 C29.54410416 74.46429663 19.40512476 70 0 70 C0 46.9 0 23.8 0 0 Z " fill="#050505" transform="translate(223,261)"/>
<path d="M0 0 C33.76470588 0 33.76470588 0 40.4375 6.1875 C46.34706415 13.10724606 45.37255017 23.24862583 45.37060547 31.78100586 C45.37498406 33.92967755 45.41140416 36.0762988 45.44921875 38.22460938 C45.51731849 46.48819533 45.30518151 54.09178774 39.62304688 60.56982422 C28.97289121 70.29312474 13.00896489 66 0 66 C0 44.22 0 22.44 0 0 Z " fill="#010101" transform="translate(223,149)"/>
</svg>
